# xmcd
#
# Track frame offsets: 
#        150
#        18554
#        37584
#        60407
#
# Disc length: 1053 seconds
#
# Revision: 0
# Processed by: cddbd v1.5.2PL0 Copyright (c) Steve Scherf et al.
# Submitted via: ExactAudioCopy v1.3
#
DISCID=22041b04
DTITLE=松室政哉 - 毎秒、君に恋してる
DYEAR=2017
DGENRE=Pop-Folk
TTITLE0=毎秒、君に恋してる
TTITLE1=Theme
TTITLE2=ラブソング。
TTITLE3=オレンジ
EXTD=
EXTT0=
EXTT1=
EXTT2=
EXTT3=
PLAYORDER=
